# Blender v3.2.0 OBJ File: ''
# www.blender.org
mtllib Foam_c2.mtl
o map.002_map.012
v 0.424974 -0.250000 -0.574789
v 0.237365 -0.562500 -0.762010
v 0.000012 -0.562500 -0.762357
v 0.000000 -0.250000 -0.575000
v 0.237508 -0.562500 -1.000037
v 0.000047 -0.562500 -1.000025
v 0.425000 -0.250000 -1.000000
vt 7.575052 0.000000
vt 7.762771 -0.375000
vt 8.000000 -0.375000
vt 8.000000 0.000000
vt 7.762771 -0.375000
vt 8.000000 -0.646485
vt 7.000000 0.000000
vt 7.000000 -0.375000
vt 7.238479 -0.375000
vt 7.425423 0.000000
vn 0.0007 0.5139 -0.8578
vn 0.0000 1.0000 -0.0000
vn -0.8574 0.5146 -0.0002
usemtl sea_gake02.009
s 1
f 1/1/1 2/2/1 3/3/1 4/4/1
f 2/2/2 5/5/2 6/6/2 3/3/2
usemtl sea_gake02.008
f 7/7/3 5/8/3 2/9/3 1/10/3
