# Blender v3.2.0 OBJ File: ''
# www.blender.org
mtllib TestMap2.mtl
o map
v 96.000000 -0.000015 15.999996
v 80.000000 -0.000012 15.999996
v 80.000000 -0.000012 31.999996
v 96.000000 -0.000015 31.999996
v 112.000000 -0.000017 15.999995
v 96.000000 -0.000015 15.999996
v 96.000000 -0.000015 31.999996
v 112.000000 -0.000017 31.999994
v 96.000000 -0.000015 31.999996
v 80.000000 -0.000012 31.999996
v 80.000000 -0.000012 47.999996
v 96.000000 -0.000015 47.999996
v 112.000000 -0.000017 31.999994
v 96.000000 -0.000015 31.999996
v 96.000000 -0.000015 47.999996
v 112.000000 -0.000017 47.999996
v 48.000000 -0.000007 -16.000002
v 48.000000 -0.000007 -0.000002
v 64.000000 -0.000009 -0.000003
v 64.000000 -0.000009 -16.000002
v 64.000000 -0.000009 -16.000002
v 64.000000 -0.000009 -0.000003
v 80.000000 -0.000012 -0.000003
v 80.000000 -0.000012 -16.000004
v 48.000000 -0.000007 -0.000002
v 48.000000 -0.000007 15.999998
v 64.000000 -0.000009 15.999997
v 64.000000 -0.000009 -0.000003
v 64.000000 -0.000009 -0.000003
v 64.000000 -0.000009 15.999997
v 80.000000 -0.000012 15.999996
v 80.000000 -0.000012 -0.000003
v 64.000000 -0.000010 31.999998
v 64.000000 -0.000010 15.999997
v 48.000000 -0.000008 15.999998
v 48.000000 -0.000008 31.999998
v 80.000000 -0.000013 31.999996
v 80.000000 -0.000013 15.999996
v 64.000000 -0.000010 15.999997
v 64.000000 -0.000010 31.999998
v 64.000000 -0.000010 47.999996
v 64.000000 -0.000010 31.999998
v 48.000000 -0.000008 31.999998
v 48.000004 -0.000008 47.999996
v 80.000000 -0.000013 47.999996
v 80.000000 -0.000013 31.999996
v 64.000000 -0.000010 31.999998
v 64.000000 -0.000010 47.999996
v 16.000000 -0.000002 15.999999
v 16.000002 -0.000002 32.000000
v 32.000000 -0.000004 31.999998
v 32.000000 -0.000004 15.999999
v 32.000000 -0.000004 15.999999
v 32.000000 -0.000004 31.999998
v 48.000000 -0.000007 31.999998
v 48.000000 -0.000007 15.999998
v 16.000002 -0.000002 32.000000
v 16.000002 -0.000002 48.000000
v 32.000004 -0.000004 48.000000
v 32.000000 -0.000004 31.999998
v 32.000000 -0.000004 31.999998
v 32.000004 -0.000004 48.000000
v 48.000004 -0.000007 47.999996
v 48.000000 -0.000007 31.999998
v 64.000015 -1.000011 63.999996
v 64.000015 -1.000011 47.999996
v 48.000019 -1.000009 47.999996
v 48.000019 -1.000009 63.999996
v 80.000015 -1.000014 63.999996
v 80.000015 -1.000014 47.999996
v 64.000015 -1.000011 47.999996
v 64.000015 -1.000011 63.999996
v 64.000015 -1.000011 80.000000
v 64.000015 -1.000011 63.999996
v 48.000019 -1.000009 63.999996
v 48.000019 -1.000009 80.000000
v 80.000015 -1.000014 80.000000
v 80.000015 -1.000014 63.999996
v 64.000015 -1.000011 63.999996
v 64.000015 -1.000011 80.000000
v 0.000032 -0.499999 16.000000
v -15.999984 -0.499997 16.000000
v -15.999984 -0.499997 17.000000
v 0.000032 -0.499999 17.000000
v 16.000031 -0.500002 15.999999
v 0.000016 -0.500000 16.000000
v 0.000016 -0.500000 17.000000
v 16.000031 -0.500002 17.000000
v -14.999999 -0.499997 17.000000
v -15.999999 -0.499997 17.000000
v -15.999999 -0.499997 33.000000
v -14.999999 -0.499997 33.000000
v 1.000031 -1.499999 17.000000
v -14.999984 -1.499997 17.000000
v -14.999984 -1.499997 33.000000
v 1.000032 -1.499999 33.000000
v 15.000032 -1.500002 17.000000
v 1.000015 -1.500000 17.000000
v 1.000016 -1.500000 33.000000
v 15.000032 -1.500002 33.000000
v 16.000000 -0.500002 17.000000
v 15.000001 -0.500002 17.000000
v 15.000001 -0.500002 33.000000
v 16.000002 -0.500002 33.000000
v -14.999999 -0.499997 33.000000
v -15.999999 -0.499997 33.000000
v -15.999998 -0.499997 48.000000
v -14.999998 -0.499997 48.000000
v 1.000032 -1.499999 33.000000
v -14.999984 -1.499997 33.000000
v -14.999983 -1.499997 47.000000
v 1.000033 -1.499999 47.000000
v 15.000032 -1.500002 33.000000
v 1.000016 -1.500000 33.000000
v 1.000016 -1.500000 35.000000
v 15.000032 -1.500002 35.000000
v 16.000002 -0.500002 33.000000
v 15.000001 -0.500002 33.000000
v 15.000002 -0.500002 48.000000
v 16.000002 -0.500002 48.000000
v 6.000010 -1.500000 35.000000
v 1.000009 -1.500000 35.000000
v 1.000010 -1.500000 47.000000
v 6.000010 -1.500000 47.000000
v 7.000001 -0.500000 35.000000
v 6.000001 -0.500001 35.000000
v 6.000002 -0.500001 48.000000
v 7.000002 -0.500000 48.000000
v 10.000010 -0.500001 35.000000
v 7.000001 -0.500001 35.000000
v 7.000001 -0.500001 36.000000
v 10.000010 -0.500001 36.000000
v 15.000009 -1.500002 35.000000
v 10.000009 -1.500002 35.000000
v 10.000010 -1.500002 46.000000
v 15.000010 -1.500002 46.000000
v 10.000009 -1.500001 36.000000
v 7.000001 -1.500001 36.000000
v 7.000002 -1.500001 46.000000
v 10.000010 -1.500001 46.000000
v 15.000017 -0.500001 46.000000
v 7.000010 -0.500001 46.000000
v 7.000010 -0.500001 48.000000
v 15.000017 -0.500001 48.000000
v 1.000033 -0.499999 47.000000
v -14.999983 -0.499998 47.000000
v -14.999983 -0.499998 48.000000
v 1.000033 -0.499999 48.000000
v 6.000010 -0.500000 47.000000
v 1.000010 -0.500000 47.000000
v 1.000010 -0.500000 48.000000
v 6.000010 -0.500000 48.000000
vt 0.000000 16.000000
vt 0.000000 0.000000
vt 16.000000 0.000000
vt 16.000000 16.000000
vt 0.000000 16.000000
vt 0.000000 0.000000
vt 16.000000 0.000000
vt 16.000000 16.000000
vt 0.000000 16.000000
vt 0.000000 0.000000
vt 16.000000 0.000000
vt 16.000000 16.000000
vt 0.000000 16.000000
vt 0.000000 0.000000
vt 16.000000 0.000000
vt 16.000000 16.000000
vt 0.000000 0.000000
vt 16.000000 0.000000
vt 16.000000 16.000000
vt 0.000000 16.000000
vt 0.000000 0.000000
vt 16.000000 0.000000
vt 16.000000 16.000000
vt 0.000000 16.000000
vt 0.000000 0.000000
vt 16.000000 0.000000
vt 16.000000 16.000000
vt 0.000000 16.000000
vt 0.000000 0.000000
vt 16.000000 0.000000
vt 16.000000 16.000000
vt 0.000000 16.000000
vt 4.000000 4.000000
vt 0.000000 4.000000
vt 0.000000 0.000000
vt 4.000000 0.000000
vt 4.000000 8.000000
vt 0.000000 8.000000
vt 0.000000 4.000000
vt 4.000000 4.000000
vt 8.000000 4.000000
vt 4.000000 4.000000
vt 4.000000 0.000000
vt 8.000000 0.000000
vt 8.000000 8.000000
vt 4.000000 8.000000
vt 4.000000 4.000000
vt 8.000000 4.000000
vt 0.000000 0.000000
vt 16.000000 0.000000
vt 16.000000 16.000000
vt 0.000000 16.000000
vt 0.000000 0.000000
vt 16.000000 0.000000
vt 16.000000 16.000000
vt 0.000000 16.000000
vt 0.000000 0.000000
vt 16.000000 0.000000
vt 16.000000 16.000000
vt 0.000000 16.000000
vt 0.000000 0.000000
vt 16.000000 0.000000
vt 16.000000 16.000000
vt 0.000000 16.000000
vt 8.000000 8.000008
vt 0.000000 8.000008
vt 0.000000 0.000008
vt 8.000000 0.000008
vt 8.000000 16.000008
vt 0.000000 16.000008
vt 0.000000 8.000008
vt 8.000000 8.000008
vt 16.000000 8.000008
vt 8.000000 8.000008
vt 8.000000 0.000008
vt 16.000000 0.000008
vt 16.000000 16.000008
vt 8.000000 16.000008
vt 8.000000 8.000008
vt 16.000000 8.000008
vt -0.000000 -4.000008
vt -0.000000 -0.000004
vt -0.250000 -0.000004
vt -0.250000 -4.000008
vt -0.000000 -8.000008
vt -0.000000 -4.000004
vt -0.250000 -4.000004
vt -0.250000 -8.000008
vt -0.250000 -0.250001
vt -0.250000 -0.000000
vt -4.250000 -0.000000
vt -4.250000 -0.250001
vt -0.250000 -4.250008
vt -0.250000 -0.250004
vt -4.250000 -0.250004
vt -4.250000 -4.250008
vt -0.250000 -7.750007
vt -0.250000 -4.250003
vt -4.250000 -4.250003
vt -4.250000 -7.750007
vt -0.250000 -8.000001
vt -0.250000 -7.750000
vt -4.250000 -7.750000
vt -4.250000 -8.000001
vt -4.250000 -0.250001
vt -4.250000 -0.000000
vt -8.000000 -0.000000
vt -8.000000 -0.250001
vt -4.250000 -4.250008
vt -4.250000 -0.250004
vt -7.750000 -0.250004
vt -7.750000 -4.250008
vt -4.250000 -7.750007
vt -4.250000 -4.250003
vt -4.750000 -4.250003
vt -4.750000 -7.750007
vt -4.250000 -8.000001
vt -4.250000 -7.750000
vt -8.000000 -7.750000
vt -8.000000 -8.000001
vt -4.750000 -5.500002
vt -4.750000 -4.250001
vt -7.750000 -4.250001
vt -7.750000 -5.500002
vt -4.750000 -5.750000
vt -4.750000 -5.500000
vt -8.000000 -5.500000
vt -8.000000 -5.750000
vt -4.750000 -6.500001
vt -4.750000 -5.750001
vt -5.000000 -5.750001
vt -5.000000 -6.500001
vt -4.750000 -7.750002
vt -4.750000 -6.500001
vt -7.500000 -6.500001
vt -7.500000 -7.750002
vt -5.000000 -6.500001
vt -5.000000 -5.750001
vt -7.500000 -5.750001
vt -7.500000 -6.500001
vt -7.500000 -7.750004
vt -7.500000 -5.750002
vt -8.000000 -5.750002
vt -8.000000 -7.750004
vt -7.750000 -4.250008
vt -7.750000 -0.250004
vt -8.000000 -0.250004
vt -8.000000 -4.250008
vt -7.750000 -5.500002
vt -7.750000 -4.250001
vt -8.000000 -4.250001
vt -8.000000 -5.500002
vn 0.0000 1.0000 0.0000
usemtl sea_jimen
s 1
f 1/1/1 2/2/1 3/3/1 4/4/1
f 5/5/1 6/6/1 7/7/1 8/8/1
f 9/9/1 10/10/1 11/11/1 12/12/1
f 13/13/1 14/14/1 15/15/1 16/16/1
usemtl gake_futa
f 17/17/1 18/18/1 19/19/1 20/20/1
f 21/21/1 22/22/1 23/23/1 24/24/1
f 25/25/1 26/26/1 27/27/1 28/28/1
f 29/29/1 30/30/1 31/31/1 32/32/1
usemtl grass01ax
f 33/33/1 34/34/1 35/35/1 36/36/1
f 37/37/1 38/38/1 39/39/1 40/40/1
f 41/41/1 42/42/1 43/43/1 44/44/1
f 45/45/1 46/46/1 47/47/1 48/48/1
usemtl michi01b
f 49/49/1 50/50/1 51/51/1 52/52/1
f 53/53/1 54/54/1 55/55/1 56/56/1
f 57/57/1 58/58/1 59/59/1 60/60/1
f 61/61/1 62/62/1 63/63/1 64/64/1
usemtl kawa_soko
f 65/65/1 66/66/1 67/67/1 68/68/1
f 69/69/1 70/70/1 71/71/1 72/72/1
f 73/73/1 74/74/1 75/75/1 76/76/1
f 77/77/1 78/78/1 79/79/1 80/80/1
usemtl sea_mizu1
f 81/81/1 82/82/1 83/83/1 84/84/1
f 85/85/1 86/86/1 87/87/1 88/88/1
f 89/89/1 90/90/1 91/91/1 92/92/1
f 93/93/1 94/94/1 95/95/1 96/96/1
f 97/97/1 98/98/1 99/99/1 100/100/1
f 101/101/1 102/102/1 103/103/1 104/104/1
f 105/105/1 106/106/1 107/107/1 108/108/1
f 109/109/1 110/110/1 111/111/1 112/112/1
f 113/113/1 114/114/1 115/115/1 116/116/1
f 117/117/1 118/118/1 119/119/1 120/120/1
f 121/121/1 122/122/1 123/123/1 124/124/1
f 125/125/1 126/126/1 127/127/1 128/128/1
f 129/129/1 130/130/1 131/131/1 132/132/1
f 133/133/1 134/134/1 135/135/1 136/136/1
f 137/137/1 138/138/1 139/139/1 140/140/1
f 141/141/1 142/142/1 143/143/1 144/144/1
f 145/145/1 146/146/1 147/147/1 148/148/1
f 149/149/1 150/150/1 151/151/1 152/152/1
