# Blender v3.2.0 OBJ File: ''
# www.blender.org
mtllib Water_c2.mtl
o map.013
v 0.000000 -0.557501 0.000000
v 0.000000 -0.557501 1.250000
v 1.250000 -0.557501 1.250000
v 0.000000 -0.557501 0.000000
v 1.250000 -0.557501 1.250000
v 1.250000 -0.557501 0.000000
v 0.000000 -0.307501 2.125000
v 0.000000 -0.057500 2.875000
v 2.875000 -0.057500 2.875000
v 2.125000 -0.307501 2.125000
v 0.000000 -0.557501 1.250000
v 1.250000 -0.557501 1.250000
v 2.125000 -0.307501 2.125000
v 2.125000 -0.307501 0.000000
v 1.250000 -0.557501 0.000000
v 1.250000 -0.557501 1.250000
v 2.875000 -0.057501 0.000000
v 2.875000 -0.057500 2.875000
vt 0.000000 -1.000000
vt 0.000000 0.000000
vt 1.000000 0.000000
vt 2.000000 -1.000000
vt 1.000000 0.000000
vt 2.000000 0.000000
vt 3.000000 -0.125000
vt 3.000000 0.000000
vt 1.000000 0.000000
vt 1.000000 -0.125000
vt 3.000000 -0.343750
vt 1.000000 -0.343750
vt 3.000000 -0.125000
vt 1.000000 -0.125000
vt 1.000000 -0.343750
vt 3.000000 -0.343750
vt 1.000000 0.000000
vt 3.000000 0.000000
vn 0.0000 1.0000 0.0000
vn 0.0000 1.0000 -0.0004
vn 0.0000 1.0000 0.0001
vn -0.0003 1.0000 -0.0000
vn -0.0001 1.0000 -0.0004
usemtl sea_zanami2.013
s 1
f 1/1/1 2/2/1 3/3/1
f 4/4/1 5/5/1 6/6/1
usemtl sea_zanami.013
f 7/7/2 8/8/1 9/9/1 10/10/3
f 11/11/1 7/7/2 10/10/3 12/12/1
f 13/13/4 14/14/5 15/15/1 16/16/1
f 17/17/1 14/14/5 13/13/4 18/18/1
