# Blender v3.2.0 OBJ File: ''
# www.blender.org
mtllib WaterSand_b.mtl
o map
v 1.000000 1.250000 -0.437501
v 0.000000 1.250000 -0.437501
v 0.000000 0.000000 -0.437501
v 1.000000 0.000000 -0.437501
v 1.000000 1.250000 -0.437501
v 1.000000 2.125000 -0.187501
v 0.000000 2.125000 -0.187501
v 0.000000 1.250000 -0.437501
v 1.000000 2.875000 0.062499
v 0.000000 2.875000 0.062499
v 0.000000 3.000000 -0.000001
v 0.000000 2.000000 -0.500001
v 1.000000 2.000000 -0.500001
v 1.000000 3.000000 -0.000001
v 0.000000 1.250000 -0.562501
v 1.000000 1.250000 -0.562501
vt -2.000000 0.000000
vt -1.000000 0.000000
vt -1.000000 -1.000000
vt -2.000000 -1.000000
vt 1.000000 -0.343750
vt 1.000000 -0.125000
vt 0.000000 -0.125000
vt 0.000000 -0.343750
vt 1.000000 0.000000
vt 0.000000 0.000000
vt -0.000000 0.000000
vt -0.000000 -1.000000
vt 1.000000 -1.000000
vt 1.000000 0.000000
vt -0.000000 -1.000000
vt 1.000000 -1.000000
vn 0.0000 -0.0000 1.0000
usemtl sea_zanami2
s 1
f 1/1/1 2/2/1 3/3/1 4/4/1
usemtl sea_zanami
f 5/5/1 6/6/1 7/7/1 8/8/1
f 6/6/1 9/9/1 10/10/1 7/7/1
usemtl sea_simi_1
f 11/11/1 12/12/1 13/13/1 14/14/1
f 12/12/1 15/15/1 16/16/1 13/13/1
