# Blender v3.2.0 OBJ File: ''
# www.blender.org
mtllib Water_b2.mtl
o map.012
v 1.250000 -0.557501 1.000000
v 1.250000 -0.557501 0.000000
v 0.000000 -0.557501 0.000000
v 0.000000 -0.557501 1.000000
v 1.250000 -0.557501 1.000000
v 2.125000 -0.307501 1.000000
v 2.125000 -0.307501 0.000000
v 1.250000 -0.557501 0.000000
v 2.875000 -0.057501 1.000000
v 2.875000 -0.057501 0.000000
vt -2.000000 0.000000
vt -1.000000 0.000000
vt -1.000000 -1.000000
vt -2.000000 -1.000000
vt 1.000000 -0.343750
vt 1.000000 -0.125000
vt 0.000000 -0.125000
vt 0.000000 -0.343750
vt 1.000000 0.000000
vt 0.000000 0.000000
vn 0.0000 1.0000 0.0000
vn 0.0000 1.0000 0.0001
usemtl sea_zanami2.012
s 1
f 1/1/1 2/2/1 3/3/1 4/4/1
usemtl sea_zanami.012
f 5/5/1 6/6/1 7/7/2 8/8/1
f 6/6/1 9/9/1 10/10/1 7/7/2
